<?xml version="1.0" encoding="UTF-8" standalone="no"?>
<svg width="101px" height="21px" viewBox="0 0 101 21" version="1.1" xmlns="http://www.w3.org/2000/svg" xmlns:xlink="http://www.w3.org/1999/xlink">
    <!-- Generator: Sketch 44.1 (41455) - http://www.bohemiancoding.com/sketch -->
    <title>canon-logo</title>
    <desc>Created with Sketch.</desc>
    <defs></defs>
    <g id="Page-1" stroke="none" stroke-width="1" fill="none" fill-rule="evenodd">
        <g id="homepage-final" transform="translate(-96.000000, -47.000000)" fill-rule="nonzero" fill="#000000">
            <g id="nav" transform="translate(96.000000, 47.000000)">
                <g id="canon-logo">
                    <path d="M16.5065723,18.9539749 C11.8048534,18.9539749 8.00050556,15.1631799 8.00050556,10.4937238 C8.00050556,5.82426778 11.8048534,2.0460251 16.5065723,2.0460251 C18.1622851,2.0460251 19.7168857,2.51046025 21.0187058,3.32635983 L16.5065723,10.4937238 L25,5.62343096 C24.0773509,4.16736402 22.7502528,2.89958159 21.1577351,1.94560669 C19.1228514,0.753138075 16.2917088,0 13.1572295,0 C8.68301314,0 4.76491405,1.60669456 2.57836198,4.0292887 C0.960566229,5.81171548 0,8.05857741 0,10.5062762 C0,12.9539749 0.960566229,15.2008368 2.57836198,16.9832636 C4.76491405,19.4058577 8.63245703,21 13.0308392,21 C17.4292214,21 21.2841254,19.3933054 23.4833165,16.9832636 C23.5970677,16.8451883 23.723458,16.7196653 23.8245703,16.58159 L23.4959555,15.3514644 C21.9539939,17.5230126 19.40091,18.9539749 16.5065723,18.9539749" id="Shape"></path>
                    <path d="M44,20.6175617 L40.4617315,7.63933237 C39.8971142,5.54208999 37.9523212,4 35.6436637,4 C35.0414053,4 34.4642409,4.11103048 33.9372647,4.29608128 L26.3212045,7.02249637 L34.1505646,7.02249637 L35.4930991,11.9325109 C34.1882058,10.8345428 32.5069009,10.1683599 30.6499373,10.1683599 C26.9736512,10.1683599 24,12.586357 24,15.58418 C24,18.5696662 26.9736512,21 30.6499373,21 C33.2973651,21 35.6436637,19.7293179 37.0865747,17.7677794 L37.8644918,20.6175617 L44,20.6175617 L44,20.6175617 Z M33,19 C31.3469388,19 30,17.6653061 30,16 C30,14.3469388 31.3469388,13 33,13 C34.6530612,13 36,14.3469388 36,16 C36,17.6653061 34.6530612,19 33,19 Z" id="Shape"></path>
                    <path d="M59.8697883,4 C59.3951251,4 58.9461193,4.10089021 58.5484285,4.29005935 L53.5452213,6.58531157 C53.3014753,5.12240356 52.0057729,4.01261128 50.4406671,4.01261128 C49.9660038,4.01261128 49.5169981,4.11350148 49.1064785,4.30267062 L43,7.10237389 L47.2976267,7.10237389 L47.2976267,21 L53.5837075,21 L53.5837075,8.64094955 C53.5837075,7.78338279 54.289288,7.08976261 55.1488133,7.08976261 C56.0083387,7.08976261 56.7139192,7.78338279 56.7139192,8.64094955 L56.7139192,21 L63,21 L63,7.08976261 C63,5.37462908 61.6016677,4 59.8697883,4" id="Shape"></path>
                    <path d="M97.8589744,4 C97.3846154,4 96.9358974,4.10096511 96.525641,4.29027468 L91.5384615,6.57461024 C91.2948718,5.11061618 90,4 88.4358974,4 C87.9615385,4 87.5128205,4.10096511 87.1025641,4.29027468 L81,7.09205642 L85.2948718,7.09205642 L85.2948718,21 L91.5769231,21 L91.5769231,8.63177431 C91.5769231,7.7735709 92.2820513,7.07943578 93.1538462,7.07943578 C94.025641,7.07943578 94.7179487,7.7735709 94.7179487,8.63177431 L94.7179487,21 L101,21 L101,7.09205642 C101,5.37564959 99.5897436,4 97.8589744,4" id="Shape"></path>
                    <path d="M83,12.5 C83,17.1909222 78.9769286,21 74.0064888,21 C69.036049,21 65,17.1909222 65,12.5 C65,7.80907781 69.036049,4 74.0064888,4 C78.9769286,4 83,7.80907781 83,12.5 L83,12.5 Z M73.866951,6.42468588 C73.5836906,5.39389558 72.5021507,4.79050614 71.4592372,5.06705963 C70.4034483,5.34361313 69.7854255,6.39954465 70.068686,7.41776433 L73.133049,18.5678984 C73.4163094,19.5986887 74.4978493,20.2020781 75.5407628,19.9380953 C76.5965517,19.6615418 77.2145745,18.6056102 76.931314,17.5748199 L73.866951,6.42468588 L73.866951,6.42468588 Z" id="Shape"></path>
                </g>
            </g>
        </g>
    </g>
</svg>